<?xml version="1.0" standalone="no"?>
<!DOCTYPE svg PUBLIC "-//W3C//DTD SVG 20010904//EN"
 "http://www.w3.org/TR/2001/REC-SVG-20010904/DTD/svg10.dtd">
<svg version="1.0" xmlns="http://www.w3.org/2000/svg"
 width="2400.000000pt" height="2400.000000pt" viewBox="0 0 2400.000000 2400.000000"
 preserveAspectRatio="xMidYMid meet">
<metadata>
Created by potrace 1.14, written by Peter Selinger 2001-2017
</metadata>
<g transform="translate(0.000000,2400.000000) scale(0.100000,-0.100000)"
fill="#000000" stroke="none">
<path d="M7795 22640 c-33 -5 -94 -11 -135 -15 -41 -3 -82 -8 -90 -10 -8 -2
-33 -7 -55 -9 -63 -9 -108 -15 -135 -21 -14 -3 -38 -8 -55 -10 -233 -41 -621
-169 -880 -290 -44 -21 -80 -36 -80 -35 0 2 -18 -8 -40 -22 -22 -14 -65 -38
-95 -53 -222 -111 -585 -375 -799 -580 -72 -69 -106 -103 -216 -219 -160 -168
-377 -477 -560 -796 -43 -74 -85 -148 -95 -165 -10 -16 -51 -88 -92 -160 -81
-142 -363 -629 -396 -685 -12 -19 -27 -46 -35 -60 -7 -14 -107 -186 -221 -383
-114 -197 -216 -375 -228 -395 -25 -45 -115 -201 -128 -222 -7 -13 -92 -160
-201 -349 -15 -25 -59 -102 -99 -171 -40 -69 -80 -138 -90 -155 -36 -63 -214
-371 -375 -650 -92 -159 -238 -411 -323 -560 -85 -148 -175 -303 -199 -343
-24 -41 -43 -75 -43 -77 0 -1 -25 -44 -55 -94 -30 -51 -55 -93 -55 -95 0 -2
-43 -77 -95 -166 -52 -89 -95 -164 -95 -166 0 -3 -8 -17 -19 -32 -15 -22 -344
-591 -385 -667 -6 -11 -13 -22 -16 -25 -3 -3 -12 -19 -21 -35 -9 -17 -85 -149
-169 -295 -84 -146 -169 -292 -188 -325 -19 -33 -44 -76 -55 -95 -11 -19 -31
-55 -45 -80 -14 -25 -45 -79 -70 -120 -25 -41 -56 -95 -70 -120 -14 -25 -58
-101 -97 -170 -108 -187 -171 -309 -230 -446 -120 -275 -216 -628 -241 -892
-3 -31 -9 -84 -14 -117 -8 -65 -6 -507 4 -565 3 -19 7 -58 10 -86 13 -131 63
-372 114 -549 101 -346 340 -797 567 -1074 334 -407 726 -711 1190 -922 224
-102 572 -207 775 -235 19 -2 46 -7 60 -9 29 -6 73 -12 147 -20 29 -3 77 -8
105 -12 66 -8 7374 -8 7444 1 137 16 276 102 352 215 22 33 60 108 85 167 71
169 206 430 277 534 10 14 46 68 80 120 35 52 66 97 69 100 3 3 26 32 51 65
25 33 50 65 55 71 6 6 29 33 52 60 76 88 94 108 163 179 428 438 914 743 1485
934 138 46 348 103 420 114 17 3 68 12 115 21 127 23 163 27 355 45 96 9 493
6 585 -3 30 -4 78 -8 105 -11 28 -3 61 -7 75 -10 14 -3 43 -7 65 -10 115 -14
322 -59 450 -97 373 -110 720 -267 993 -449 41 -27 75 -49 77 -49 4 0 152
-109 215 -158 170 -133 386 -341 515 -497 22 -27 45 -53 50 -59 6 -6 31 -38
55 -71 25 -33 47 -62 51 -65 13 -12 143 -206 195 -292 54 -89 196 -360 221
-423 7 -16 26 -63 43 -102 114 -271 220 -690 245 -973 3 -30 9 -95 14 -145 9
-94 7 -515 -3 -575 -3 -19 -7 -60 -10 -90 -3 -30 -7 -64 -10 -76 -2 -11 -7
-47 -10 -78 -18 -167 -98 -476 -188 -726 -32 -90 -33 -92 -98 -240 -210 -477
-560 -942 -967 -1286 -125 -106 -153 -128 -254 -198 -52 -36 -98 -69 -104 -74
-5 -4 -66 -42 -135 -83 -350 -211 -754 -368 -1165 -455 -44 -9 -90 -18 -103
-19 -12 -2 -55 -9 -94 -15 -38 -7 -87 -13 -107 -15 -20 -1 -79 -7 -131 -11
-170 -16 -564 -10 -710 10 -14 2 -52 7 -85 11 -425 51 -984 242 -1353 462
-152 91 -412 267 -432 293 -3 3 -15 13 -27 21 -60 41 -227 194 -353 324 -176
181 -342 395 -481 620 -50 82 -179 315 -179 325 0 3 -15 37 -34 76 -87 177
-188 469 -237 687 l-11 48 -1356 -4 c-747 -1 -1368 -6 -1382 -9 -14 -3 -59 -9
-100 -13 -41 -4 -95 -10 -120 -15 -25 -5 -63 -12 -84 -15 -176 -25 -540 -135
-714 -216 -35 -16 -65 -29 -68 -29 -2 0 -39 -17 -82 -38 -301 -149 -584 -343
-806 -552 -91 -86 -217 -216 -253 -261 -15 -19 -36 -43 -45 -53 -36 -35 -188
-245 -259 -356 -84 -133 -210 -374 -262 -505 -54 -136 -88 -228 -93 -249 -2
-11 -10 -40 -18 -65 -68 -221 -107 -423 -132 -691 -10 -102 -10 -434 -1 -545
41 -465 168 -896 385 -1305 77 -146 139 -233 233 -329 87 -88 187 -160 297
-216 71 -35 188 -80 232 -89 14 -2 59 -11 100 -20 67 -13 621 -15 4985 -13
2701 1 4919 5 4930 9 11 3 52 9 90 12 39 4 81 9 95 11 14 3 43 7 65 10 487 67
1012 260 1465 540 99 61 122 77 268 184 161 119 335 272 476 420 108 114 122
128 147 162 15 19 35 43 45 54 121 131 278 369 509 770 73 127 142 246 153
265 22 36 100 172 144 250 14 25 65 113 114 195 48 83 96 166 106 185 10 19
23 42 28 50 18 28 200 342 200 346 0 2 18 33 40 69 22 36 40 68 40 70 0 3 17
34 39 68 35 57 90 150 138 237 20 35 141 245 358 620 62 107 123 213 136 235
47 83 81 141 101 175 27 47 246 425 272 472 12 21 45 79 75 130 30 51 62 107
71 123 10 17 41 71 70 120 29 50 62 108 75 130 78 140 260 454 276 477 11 15
19 29 19 32 0 2 57 103 126 223 127 219 217 374 421 728 150 260 256 444 315
545 26 47 53 92 57 100 10 16 158 272 202 349 15 25 66 114 114 196 96 165 94
161 224 390 156 272 251 479 327 714 35 107 88 315 98 386 4 22 11 65 16 95
15 85 20 123 26 181 9 92 12 531 4 594 -5 33 -11 85 -14 115 -19 168 -74 420
-130 592 -102 313 -262 632 -448 891 -149 207 -393 468 -563 601 -28 22 -54
44 -60 51 -36 40 -308 219 -449 295 -171 91 -240 123 -396 182 -296 113 -575
174 -925 205 -100 8 -7362 8 -7433 -1 -29 -3 -75 -15 -102 -25 -154 -58 -249
-157 -320 -327 -204 -499 -538 -973 -944 -1339 -6 -6 -38 -33 -71 -60 -33 -28
-62 -53 -65 -56 -5 -6 -202 -153 -236 -177 -293 -199 -601 -352 -929 -461
-134 -44 -317 -95 -385 -107 -14 -3 -70 -13 -125 -23 -55 -11 -127 -22 -160
-26 -32 -4 -68 -9 -80 -11 -155 -30 -721 -23 -905 11 -14 3 -45 7 -70 10 -24
3 -101 17 -170 31 -675 135 -1322 472 -1814 943 -43 42 -97 96 -120 120 -22
24 -48 51 -57 60 -29 29 -143 165 -190 226 -55 71 -199 274 -199 280 0 2 -23
40 -51 85 -48 78 -190 351 -216 415 -7 17 -28 67 -47 113 -19 45 -33 82 -29
82 3 0 1 6 -5 13 -22 27 -135 414 -157 537 -59 335 -70 451 -70 735 1 278 17
460 60 680 8 39 16 81 19 95 31 174 139 511 223 700 213 479 502 887 869 1230
89 82 175 157 228 195 23 16 43 32 46 35 10 10 86 66 162 117 193 132 468 281
679 367 78 31 271 102 309 112 205 55 316 83 342 88 18 3 69 12 113 20 44 8
105 17 135 21 30 4 57 8 60 10 29 17 564 26 725 12 50 -4 97 -8 105 -9 18 0
254 -36 290 -43 14 -3 41 -8 60 -11 169 -30 623 -173 738 -234 10 -4 78 -38
152 -73 442 -213 846 -526 1176 -912 78 -90 200 -252 239 -314 6 -9 13 -18 16
-21 3 -3 39 -59 79 -125 150 -241 297 -560 372 -805 11 -36 26 -83 33 -105 7
-22 23 -82 35 -133 l23 -93 1361 4 c749 2 1379 7 1401 10 22 4 60 9 85 12 43
4 251 39 295 49 242 54 474 132 685 228 98 45 296 148 340 178 14 10 52 34 85
55 245 156 526 397 698 600 17 21 43 50 56 64 13 14 62 78 109 141 315 421
531 917 617 1420 24 143 28 169 42 315 9 102 9 436 -1 540 -13 136 -16 169
-22 197 -3 15 -7 39 -9 55 -32 245 -130 575 -250 843 -118 264 -212 414 -340
542 -162 164 -355 266 -600 318 -88 19 -203 19 -4965 18 -2681 0 -4902 -4
-4935 -8z"/>
<path d="M9488 18105 c-2 -2 -46 -5 -98 -9 -52 -3 -106 -8 -120 -11 -14 -3
-36 -7 -50 -10 -14 -3 -41 -8 -60 -11 -106 -18 -305 -88 -442 -156 -621 -307
-1015 -940 -1019 -1638 -1 -184 11 -281 58 -470 125 -505 488 -955 955 -1183
216 -106 295 -131 568 -182 88 -16 305 -22 430 -11 89 8 297 49 358 70 23 8
42 13 42 10 0 -2 18 5 40 16 21 11 44 20 51 20 20 0 271 128 339 172 119 79
166 116 273 218 264 251 443 568 527 935 22 99 25 120 36 245 39 457 -98 917
-380 1280 -51 65 -91 113 -112 134 -197 194 -329 290 -545 394 -217 106 -417
160 -649 177 -123 9 -199 13 -202 10z"/>
<path d="M14397 9584 c-1 -1 -41 -5 -89 -8 -48 -3 -111 -11 -140 -16 -29 -6
-69 -13 -88 -16 -19 -3 -66 -15 -105 -26 -38 -11 -74 -21 -80 -23 -5 -1 -19
-6 -30 -10 -11 -4 -53 -21 -93 -37 -335 -130 -671 -406 -858 -703 -10 -16 -21
-32 -24 -35 -20 -19 -137 -262 -159 -330 -6 -19 -22 -69 -35 -110 -14 -41 -29
-100 -35 -130 -6 -30 -14 -66 -16 -80 -30 -143 -35 -463 -10 -590 3 -14 7 -37
10 -53 14 -72 36 -170 41 -178 3 -5 7 -20 10 -33 7 -41 74 -206 121 -300 155
-309 419 -587 721 -761 197 -114 463 -206 667 -230 22 -3 61 -7 86 -10 68 -9
254 -9 339 -1 73 7 100 11 150 21 14 3 41 8 60 11 19 3 67 15 105 26 362 103
676 301 906 570 30 35 57 65 60 68 16 13 121 174 154 236 20 38 40 74 44 79
38 51 139 351 157 460 3 22 7 42 9 45 9 15 26 222 26 317 2 558 -246 1079
-685 1438 -53 44 -212 153 -236 163 -8 3 -31 15 -50 27 -77 47 -333 145 -420
161 -14 3 -41 9 -60 14 -31 8 -86 19 -130 25 -79 11 -316 25 -323 19z"/>
</g>
</svg>
