<?xml version="1.0" encoding="UTF-8" standalone="no"?>
<!DOCTYPE svg PUBLIC "-//W3C//DTD SVG 1.1//EN" "http://www.w3.org/Graphics/SVG/1.1/DTD/svg11.dtd">
<svg width="100%" height="100%" viewBox="0 0 347 400" version="1.1" xmlns="http://www.w3.org/2000/svg" xmlns:xlink="http://www.w3.org/1999/xlink" xml:space="preserve" xmlns:serif="http://www.serif.com/" style="fill-rule:evenodd;clip-rule:evenodd;stroke-linejoin:round;stroke-miterlimit:2;">
    <g transform="matrix(1,0,0,1,-926.795,-950)">
        <path d="M938.795,1117.29C931.369,1113 926.795,1105.08 926.795,1096.5C926.795,1089.57 926.795,1080.99 926.795,1073.09C926.795,1058.8 934.419,1045.6 946.795,1038.45C980.128,1019.21 1046.67,980.792 1080,961.547C1092.38,954.402 1107.62,954.402 1120,961.547C1153.33,980.792 1219.87,1019.21 1253.2,1038.45C1265.58,1045.6 1273.2,1058.8 1273.2,1073.09C1273.2,1093.9 1273.2,1123.82 1273.2,1141.14C1273.2,1144 1271.68,1146.64 1269.2,1148.07C1266.73,1149.5 1263.68,1149.5 1261.2,1148.07C1236.32,1133.7 1179.95,1101.16 1162.49,1091.08C1159.47,1089.34 1157.93,1085.84 1158.67,1082.44C1159.55,1078.43 1160,1074.27 1160,1070C1160,1036.88 1133.12,1010 1100,1010C1066.88,1010 1040,1036.88 1040,1070C1040,1103.12 1066.88,1130 1100,1130C1114.07,1130 1127.01,1125.15 1137.25,1117.03C1139.81,1114.98 1143.37,1114.71 1146.21,1116.35C1165.11,1127.23 1233.32,1166.62 1261.2,1182.71C1268.63,1187 1273.2,1194.92 1273.2,1203.5C1273.2,1210.43 1273.2,1219.01 1273.2,1226.91C1273.2,1241.2 1265.58,1254.4 1253.2,1261.55C1219.87,1280.79 1153.33,1319.21 1120,1338.45C1107.62,1345.6 1092.38,1345.6 1080,1338.45C1046.67,1319.21 980.128,1280.79 946.795,1261.55C934.419,1254.4 926.795,1241.2 926.795,1226.91C926.795,1206.1 926.795,1176.18 926.795,1158.86C926.795,1156 928.32,1153.36 930.795,1151.93C933.27,1150.5 936.32,1150.5 938.795,1151.93C963.683,1166.3 1020.05,1198.84 1037.51,1208.92C1040.53,1210.66 1042.07,1214.16 1041.33,1217.56C1040.45,1221.57 1040,1225.73 1040,1230C1040,1263.12 1066.88,1290 1100,1290C1133.12,1290 1160,1263.12 1160,1230C1160,1196.88 1133.12,1170 1100,1170C1085.93,1170 1072.99,1174.85 1062.76,1182.97C1060.19,1185.02 1056.63,1185.29 1053.79,1183.65C1034.89,1172.77 966.677,1133.38 938.795,1117.29ZM1100,1200C1116.56,1200 1130,1213.44 1130,1230C1130,1246.56 1116.56,1260 1100,1260C1083.44,1260 1070,1246.56 1070,1230C1070,1213.44 1083.44,1200 1100,1200ZM1100,1040C1116.56,1040 1130,1053.44 1130,1070C1130,1086.56 1116.56,1100 1100,1100C1083.44,1100 1070,1086.56 1070,1070C1070,1053.44 1083.44,1040 1100,1040Z" style="fill:url(#_Linear1);"/>
    </g>
    <defs>
        <linearGradient id="_Linear1" x1="0" y1="0" x2="1" y2="0" gradientUnits="userSpaceOnUse" gradientTransform="matrix(-530.943,-310.227,310.227,-530.943,1365.02,1298.15)"><stop offset="0" style="stop-color:rgb(0,255,35);stop-opacity:1"/><stop offset="1" style="stop-color:rgb(0,138,255);stop-opacity:1"/></linearGradient>
    </defs>
</svg>
